<?xml version="1.0" encoding="UTF-8" standalone="no"?>
<!-- Created with Inkscape (http://www.inkscape.org/) -->

<svg
   xmlns:dc="http://purl.org/dc/elements/1.1/"
   xmlns:cc="http://creativecommons.org/ns#"
   xmlns:rdf="http://www.w3.org/1999/02/22-rdf-syntax-ns#"
   xmlns:svg="http://www.w3.org/2000/svg"
   xmlns="http://www.w3.org/2000/svg"
   xmlns:sodipodi="http://sodipodi.sourceforge.net/DTD/sodipodi-0.dtd"
   xmlns:inkscape="http://www.inkscape.org/namespaces/inkscape"
   width="150"
   height="150"
   viewBox="0 0 150 150"
   id="svg2"
   version="1.1"
   inkscape:version="0.91 r13725"
   sodipodi:docname="matchandtrade-logo.svg">
  <defs
     id="defs4">
    <inkscape:perspective
       sodipodi:type="inkscape:persp3d"
       inkscape:vp_x="-39.053935 : 714.88171 : 1"
       inkscape:vp_y="0 : 531.55 : 0"
       inkscape:vp_z="934.41009 : 714.88172 : 1"
       inkscape:persp3d-origin="447.67808 : 621.6512 : 1"
       id="perspective3355" />
  </defs>
  <sodipodi:namedview
     id="base"
     pagecolor="#ffffff"
     bordercolor="#666666"
     borderopacity="1.0"
     inkscape:pageopacity="0.0"
     inkscape:pageshadow="2"
     inkscape:zoom="3.2385738"
     inkscape:cx="87.946866"
     inkscape:cy="73.440931"
     inkscape:document-units="px"
     inkscape:current-layer="layer3"
     showgrid="true"
     inkscape:window-width="1888"
     inkscape:window-height="1053"
     inkscape:window-x="32"
     inkscape:window-y="0"
     inkscape:window-maximized="1"
     showguides="true"
     inkscape:guide-bbox="true"
     inkscape:snap-grids="true"
     units="px"
     inkscape:snap-to-guides="true">
    <sodipodi:guide
       position="0,0"
       orientation="0,1"
       id="guide3373"
       inkscape:label=""
       inkscape:color="rgb(0,0,255)" />
    <inkscape:grid
       type="xygrid"
       id="grid4264" />
    <sodipodi:guide
       position="0,150"
       orientation="0,1"
       id="guide5601" />
    <sodipodi:guide
       position="0,150"
       orientation="1,0"
       id="guide5603" />
  </sodipodi:namedview>
  <metadata
     id="metadata7">
    <rdf:RDF>
      <cc:Work
         rdf:about="">
        <dc:format>image/svg+xml</dc:format>
        <dc:type
           rdf:resource="http://purl.org/dc/dcmitype/StillImage" />
        <dc:title></dc:title>
      </cc:Work>
    </rdf:RDF>
  </metadata>
  <g
     inkscape:groupmode="layer"
     id="layer4"
     inkscape:label="meeple"
     style="display:inline"
     transform="translate(0,-902.36216)">
    <path
       style="display:inline;fill:#006010;fill-opacity:1;fill-rule:evenodd;stroke:#ffffff;stroke-width:3.20000005;stroke-linecap:butt;stroke-linejoin:round;stroke-miterlimit:0;stroke-dasharray:none;stroke-opacity:1"
       d="m 103.95665,904.61866 0,0.0101 m 0,0 c -8.680158,0.16209 -13.170663,6.56094 -13.191435,19.61639 -1.584314,1.03409 -18.032927,3.76334 -25.632131,12.48294 -2.06535,2.38617 -3.763013,5.17205 -3.337579,8.86327 0.176427,1.58921 0.875838,3.25487 2.781711,4.5982 2.02587,1.18362 4.268696,2.1212 6.754559,2.05511 1.456588,0.0281 3.083765,-0.037 4.56718,-0.0234 3.733684,0.13047 5.895941,2.16782 3.775515,6.29953 -4.198294,9.03792 -8.898412,17.89565 -12.476762,27.15523 -0.69586,1.83556 -1.574893,3.81913 -1.860101,5.95875 -0.199346,2.27209 0.602149,4.41388 3.830878,4.40198 l 21.59673,0 c 3.662098,-0.1278 7.671062,-10.08977 11.564765,-16.74032 1.19545,-1.6536 2.37531,-1.66652 3.44103,0 3.8937,6.65055 7.90509,16.61252 11.56719,16.74032 l 21.59431,0 c 3.22872,0.012 4.03262,-2.12989 3.83327,-4.40198 -0.28519,-2.13962 -1.16425,-4.12319 -1.86009,-5.95875 -3.57835,-9.25958 -8.27848,-18.11731 -12.47677,-27.15523 -2.12044,-4.13171 0.0419,-6.16907 3.77551,-6.29953 1.48344,-0.0134 3.11059,0.0513 4.56721,0.0234 2.48582,0.0659 4.72866,-0.87149 6.75452,-2.05511 1.90589,-1.34333 2.60291,-3.00899 2.7793,-4.5982 0.42545,-3.69122 -1.27219,-6.4771 -3.33757,-8.86327 -7.59919,-8.7196 -24.04544,-11.44885 -25.62969,-12.48294 -0.021,-13.0553 -4.51148,-19.45419 -13.19145,-19.61639 m 0,0 0,-0.0101 m 0,0 c -0.033,2.5e-4 -0.0635,0.005 -0.0962,0.005 m 0,0 c -0.0322,-4.2e-4 -0.0619,-0.005 -0.0939,-0.005"
       id="path4761-0-3-6"
       inkscape:connector-curvature="0"
       sodipodi:nodetypes="cccccccccccccccccccccccccccccccccc" />
  </g>
  <g
     inkscape:groupmode="layer"
     id="layer3"
     inkscape:label="pawn"
     style="display:inline"
     transform="translate(0,-902.36216)">
    <g
       id="g5705"
       style="fill:#0030ff;fill-opacity:1;stroke:#ffffff;stroke-width:3.5;stroke-miterlimit:4;stroke-dasharray:none"
       transform="translate(9.6069135,0)">
      <path
         style="fill:#0030ff;fill-opacity:1;stroke:#ffffff;stroke-width:3.5;stroke-linecap:round;stroke-linejoin:round;stroke-miterlimit:4;stroke-dasharray:none"
         d="m 20.676306,928.04573 18.234097,0 c 3.588752,18.6045 9.61042,37.20898 17.204147,55.81348 1.461996,3.87734 0.437183,6.56374 -3.050878,8.4116 -10.910043,6.65153 -33.71569,6.57137 -46.5025628,0.0848 -3.345775,-1.86217 -4.5553087,-3.93793 -2.7087615,-9.54633 7.5133813,-17.70834 12.6242753,-36.45117 16.8239583,-54.76354 z"
         id="path5126"
         inkscape:connector-curvature="0"
         sodipodi:nodetypes="ccccccc" />
      <ellipse
         ry="19.294081"
         rx="20.509924"
         style="fill:#0030ff;fill-opacity:1;stroke:#ffffff;stroke-width:3.5;stroke-linejoin:round;stroke-miterlimit:4;stroke-dasharray:none"
         id="circle5128"
         cx="29.793346"
         cy="924.06274" />
    </g>
  </g>
  <g
     inkscape:groupmode="layer"
     id="layer2"
     inkscape:label="dice"
     style="display:inline"
     transform="translate(0,-902.36216)">
    <g
       id="g5719"
       transform="matrix(0.96932078,0,0,0.96932078,0.90685267,32.258264)">
      <path
         inkscape:connector-curvature="0"
         id="path5685"
         d="m 85.070664,962.87524 27.362326,13.65677 c 1.48434,0.80638 1.05591,1.6181 -0.0288,1.94602 l -45.675941,10.59886 c -3.972069,1.04839 -4.714343,1.17745 -7.703637,-0.97696 L 37.142628,972.45986 c -1.129245,-0.85722 -0.825599,-1.93348 0.336631,-2.14737 l 40.370375,-8.05164 0.01522,-0.003 c 3.317399,-0.67832 4.976682,-0.62764 7.205806,0.61775 z"
         style="color:#000000;font-style:normal;font-variant:normal;font-weight:normal;font-stretch:normal;font-size:medium;line-height:normal;font-family:sans-serif;text-indent:0;text-align:start;text-decoration:none;text-decoration-line:none;text-decoration-style:solid;text-decoration-color:#000000;letter-spacing:normal;word-spacing:normal;text-transform:none;direction:ltr;block-progression:tb;writing-mode:lr-tb;baseline-shift:baseline;text-anchor:start;white-space:normal;clip-rule:nonzero;display:inline;overflow:visible;visibility:visible;opacity:1;isolation:auto;mix-blend-mode:normal;color-interpolation:sRGB;color-interpolation-filters:linearRGB;solid-color:#000000;solid-opacity:1;fill:#ff8000;fill-opacity:1;fill-rule:evenodd;stroke:none;stroke-width:1.79999995;stroke-linecap:butt;stroke-linejoin:round;stroke-miterlimit:4;stroke-dasharray:none;stroke-dashoffset:0;stroke-opacity:1;color-rendering:auto;image-rendering:auto;shape-rendering:auto;text-rendering:auto;enable-background:accumulate" />
      <path
         inkscape:connector-curvature="0"
         id="path5683"
         d="m 34.482504,974.73938 23.563854,16.35219 c 1.883344,1.24025 2.17195,2.75302 2.17195,4.8203 l 0,47.77113 c 0.02402,2.3425 -1.01921,3.0339 -2.286229,1.9107 L 36.46157,1024.4236 c -1.075623,-1.0691 -1.372807,-2.6964 -1.556303,-4.756 l 0,0 -2.382308,-43.1419 c -0.11164,-1.38487 0.02132,-3.02302 1.959545,-1.78295 z"
         style="color:#000000;font-style:normal;font-variant:normal;font-weight:normal;font-stretch:normal;font-size:medium;line-height:normal;font-family:sans-serif;text-indent:0;text-align:start;text-decoration:none;text-decoration-line:none;text-decoration-style:solid;text-decoration-color:#000000;letter-spacing:normal;word-spacing:normal;text-transform:none;direction:ltr;block-progression:tb;writing-mode:lr-tb;baseline-shift:baseline;text-anchor:start;white-space:normal;clip-rule:nonzero;display:inline;overflow:visible;visibility:visible;opacity:1;isolation:auto;mix-blend-mode:normal;color-interpolation:sRGB;color-interpolation-filters:linearRGB;solid-color:#000000;solid-opacity:1;fill:#ff8000;fill-opacity:1;fill-rule:evenodd;stroke:none;stroke-width:1.79999995;stroke-linecap:butt;stroke-linejoin:round;stroke-miterlimit:4;stroke-dasharray:none;stroke-dashoffset:0;stroke-opacity:1;color-rendering:auto;image-rendering:auto;shape-rendering:auto;text-rendering:auto;enable-background:accumulate" />
      <path
         inkscape:connector-curvature="0"
         id="path5136-5"
         d="m 117.02222,982.87866 -2.97379,44.18524 0,-0.025 c -0.45134,4.2299 -0.87354,5.248 -4.61222,6.5248 l -42.045756,14.2012 c -1.87563,0.4977 -3.544605,0.1859 -3.590767,-2.04 l 0,-49.12483 c -0.02047,-2.86275 0.198297,-3.50196 2.648825,-4.36395 8.194078,-2.25899 16.961516,-4.30761 25.783488,-6.28896 7.715071,-1.73277 15.43498,-3.41638 22.88208,-5.13803 1.78714,-0.35007 2.00557,0.45309 1.90814,2.06939 z"
         style="color:#000000;font-style:normal;font-variant:normal;font-weight:normal;font-stretch:normal;font-size:medium;line-height:normal;font-family:sans-serif;text-indent:0;text-align:start;text-decoration:none;text-decoration-line:none;text-decoration-style:solid;text-decoration-color:#000000;letter-spacing:normal;word-spacing:normal;text-transform:none;direction:ltr;block-progression:tb;writing-mode:lr-tb;baseline-shift:baseline;text-anchor:start;white-space:normal;clip-rule:nonzero;display:inline;overflow:visible;visibility:visible;opacity:1;isolation:auto;mix-blend-mode:normal;color-interpolation:sRGB;color-interpolation-filters:linearRGB;solid-color:#000000;solid-opacity:1;fill:#ff8000;fill-opacity:1;fill-rule:evenodd;stroke:none;stroke-width:1.79999995;stroke-linecap:butt;stroke-linejoin:round;stroke-miterlimit:4;stroke-dasharray:none;stroke-dashoffset:0;stroke-opacity:1;color-rendering:auto;image-rendering:auto;shape-rendering:auto;text-rendering:auto;enable-background:accumulate" />
      <path
         style="color:#000000;font-style:normal;font-variant:normal;font-weight:normal;font-stretch:normal;font-size:medium;line-height:normal;font-family:sans-serif;text-indent:0;text-align:start;text-decoration:none;text-decoration-line:none;text-decoration-style:solid;text-decoration-color:#000000;letter-spacing:normal;word-spacing:normal;text-transform:none;direction:ltr;block-progression:tb;writing-mode:lr-tb;baseline-shift:baseline;text-anchor:start;white-space:normal;clip-rule:nonzero;display:inline;overflow:visible;visibility:visible;opacity:1;isolation:auto;mix-blend-mode:normal;color-interpolation:sRGB;color-interpolation-filters:linearRGB;solid-color:#000000;solid-opacity:1;fill:#ff0000;fill-opacity:0;fill-rule:evenodd;stroke:none;stroke-width:1.79999995;stroke-linecap:butt;stroke-linejoin:round;stroke-miterlimit:4;stroke-dasharray:none;stroke-dashoffset:0;stroke-opacity:1;color-rendering:auto;image-rendering:auto;shape-rendering:auto;text-rendering:auto;enable-background:accumulate"
         d="m 80.787422,959.07366 c -1.293576,-0.007 -2.448751,0.15856 -3.506376,0.38208 l -42.48906,8.47121 a 1.4401971,1.4315841 0 0 0 -0.06258,0.0134 c -1.72478,0.42356 -3.129184,1.3283 -4.00015,2.61873 -0.870966,1.29041 -1.193217,2.86582 -1.168791,4.56333 a 1.4401971,1.4315841 0 0 0 0,0.059 l 2.471958,44.68899 a 1.4401971,1.4315841 0 0 0 0.0033,0.048 c 0.193104,2.1695 0.503397,4.6581 2.393844,6.5328 a 1.4401971,1.4315841 0 0 0 0.0033,0 l 22.910217,22.593 -0.01523,-0.018 c 1.557572,1.5845 3.391961,2.3437 5.237702,2.4324 1.845756,0.089 3.664381,-0.3786 5.643954,-0.9508 a 1.4401971,1.4315841 0 0 0 0.06258,-0.022 l 44.71101,-15.1001 a 1.4401971,1.4315841 0 0 0 0.175,-0.073 c 1.50304,-0.7362 2.4202,-2.0899 2.93136,-3.5134 0.51115,-1.4238 0.69935,-2.9755 0.83127,-4.5261 a 1.4401971,1.4315841 0 0 0 0,-0.025 l 3.08761,-45.91917 a 1.4401971,1.4315841 0 0 0 0.003,-0.0714 c 0.0264,-1.52865 -0.47248,-2.93921 -1.36567,-4.04769 -0.89317,-1.10846 -2.12563,-1.9261 -3.56262,-2.5628 L 85.376408,959.82109 a 1.4401971,1.4315841 0 0 0 -0.24062,-0.0931 c -1.611142,-0.47038 -3.047634,-0.65187 -4.347046,-0.65856 z"
         id="path5132"
         inkscape:connector-curvature="0" />
      <path
         sodipodi:nodetypes="cccsccccccccsccccsccccscccccccccccccccccccccccccccccccscc"
         inkscape:connector-curvature="0"
         style="color:#000000;font-style:normal;font-variant:normal;font-weight:normal;font-stretch:normal;font-size:medium;line-height:normal;font-family:sans-serif;text-indent:0;text-align:start;text-decoration:none;text-decoration-line:none;text-decoration-style:solid;text-decoration-color:#000000;letter-spacing:normal;word-spacing:normal;text-transform:none;direction:ltr;block-progression:tb;writing-mode:lr-tb;baseline-shift:baseline;text-anchor:start;white-space:normal;clip-rule:nonzero;display:inline;overflow:visible;visibility:visible;opacity:1;isolation:auto;mix-blend-mode:normal;color-interpolation:sRGB;color-interpolation-filters:linearRGB;solid-color:#000000;solid-opacity:1;fill:#ffffff;fill-opacity:1;fill-rule:evenodd;stroke:none;stroke-width:1.79999995;stroke-linecap:butt;stroke-linejoin:round;stroke-miterlimit:4;stroke-dasharray:none;stroke-dashoffset:0;stroke-opacity:1;color-rendering:auto;image-rendering:auto;shape-rendering:auto;text-rendering:auto;enable-background:accumulate"
         d="m 77.281046,959.45574 -42.48906,8.47121 c -0.02097,0.003 -0.04178,0.007 -0.06258,0.0118 -1.72478,0.42356 -3.129184,1.32831 -4.00015,2.61872 -0.870966,1.2904 -1.193217,2.86583 -1.168791,4.56334 -4.06e-4,0.0197 -4.06e-4,0.0394 0,0.059 l 2.471958,44.68909 c 8.46e-4,0.017 0.0017,0.033 0.0033,0.048 0.193104,2.1696 0.503397,4.658 2.393844,6.5328 l 0.0033,0 22.910217,22.5931 -0.01523,-0.018 c 1.557572,1.5846 3.391961,2.3438 5.237702,2.4324 1.845756,0.089 3.664381,-0.3785 5.643954,-0.9507 0.02097,0 0.04195,-0.017 0.06258,-0.022 l 44.71101,-15.1001 c 0.0598,-0.02 0.11824,-0.043 0.175,-0.071 1.50304,-0.7361 2.4202,-2.0898 2.93136,-3.5133 0.51115,-1.4238 0.69935,-2.9755 0.83127,-4.5261 l 0,-0.025 3.08761,-45.91919 c 0.002,-0.0239 0.003,-0.0476 0.003,-0.0714 0.0264,-1.52865 -0.47248,-2.93922 -1.36567,-4.0477 -0.89317,-1.10846 -2.12563,-1.92611 -3.56262,-2.56279 L 86.43229,960.3481 c -3.637351,-1.64078 -4.711655,-1.69301 -9.151244,-0.89589 z m 7.789618,3.4195 27.362326,13.65677 c 1.48434,0.80638 1.05591,1.6181 -0.0288,1.94602 l -45.675941,10.59886 c -3.972069,1.04839 -4.714343,1.17745 -7.703637,-0.97696 L 37.142628,972.45986 c -1.129245,-0.85722 -0.825599,-1.93348 0.336631,-2.14737 l 40.370375,-8.05164 0.01522,-0.003 c 3.317399,-0.67832 4.976682,-0.62764 7.205806,0.61775 z m -50.58816,11.86414 23.563854,16.35219 c 1.883344,1.24025 2.17195,2.75302 2.17195,4.8203 l 0,47.77113 c 0.02402,2.3425 -1.01921,3.0339 -2.286229,1.9107 L 36.46157,1024.4236 c -1.075623,-1.0691 -1.372807,-2.6964 -1.556303,-4.756 l 0,0 -2.382308,-43.1419 c -0.11164,-1.38487 0.02132,-3.02302 1.959545,-1.78295 z m 82.539716,8.13928 -2.97379,44.18524 0,-0.025 c -0.45134,4.2299 -0.87354,5.248 -4.61222,6.5248 l -42.045756,14.2012 c -1.87563,0.4977 -3.544605,0.1859 -3.590767,-2.04 l 0,-49.12483 c -0.02047,-2.86275 0.198297,-3.50196 2.648825,-4.36395 8.194078,-2.25899 16.961516,-4.30761 25.783488,-6.28896 7.715071,-1.73277 15.43498,-3.41638 22.88208,-5.13803 1.78714,-0.35007 2.00557,0.45309 1.90814,2.06939 z"
         id="path5136" />
      <ellipse
         style="fill:#ffffff;fill-opacity:1;stroke:none;stroke-width:1.60000002;stroke-linejoin:round;stroke-miterlimit:4;stroke-dasharray:none"
         id="ellipse5138"
         cx="73.386742"
         cy="974.73248"
         rx="7.6331458"
         ry="5.4196405" />
      <ellipse
         style="fill:#ffffff;fill-opacity:1;stroke:none;stroke-width:1.60000002;stroke-linejoin:round;stroke-miterlimit:4;stroke-dasharray:none"
         id="ellipse5140"
         cx="-74.075188"
         cy="1035.5416"
         rx="7.6368303"
         ry="8.8943892"
         transform="matrix(-0.99951759,0.03105789,0,1,0,0)" />
      <ellipse
         style="fill:#ffffff;fill-opacity:1;stroke:none;stroke-width:1.60000002;stroke-linejoin:round;stroke-miterlimit:4;stroke-dasharray:none"
         id="ellipse5142"
         cx="221.86406"
         cy="981.42188"
         rx="5.7955046"
         ry="8.8417711"
         transform="matrix(-0.92825481,0.37194489,0.26360228,0.96463145,0,0)" />
      <ellipse
         style="fill:#ffffff;fill-opacity:1;stroke:none;stroke-width:1.60000002;stroke-linejoin:round;stroke-miterlimit:4;stroke-dasharray:none"
         id="ellipse5144"
         cx="146.73393"
         cy="963.09583"
         rx="5.4126534"
         ry="8.0896282"
         transform="matrix(-0.95601457,0.29331918,0.18666869,0.98242292,0,0)" />
      <ellipse
         style="fill:#ffffff;fill-opacity:1;stroke:none;stroke-width:1.60000002;stroke-linejoin:round;stroke-miterlimit:4;stroke-dasharray:none"
         id="ellipse5146"
         cx="-90.79557"
         cy="1014.2114"
         rx="7.2466249"
         ry="8.3228369"
         transform="matrix(-0.99953088,0.030627,0,1,0,0)" />
      <ellipse
         style="fill:#ffffff;fill-opacity:1;stroke:none;stroke-width:1.60000002;stroke-linejoin:round;stroke-miterlimit:4;stroke-dasharray:none"
         id="ellipse5148"
         cx="-109.12343"
         cy="994.54535"
         rx="6.763001"
         ry="7.8529615"
         transform="matrix(-0.99952049,0.03096441,0,1,0,0)" />
    </g>
  </g>
</svg>
