<?xml version="1.0" encoding="UTF-8" standalone="no"?>
<!-- Created with Inkscape (http://www.inkscape.org/) -->

<svg
   xmlns:dc="http://purl.org/dc/elements/1.1/"
   xmlns:cc="http://creativecommons.org/ns#"
   xmlns:rdf="http://www.w3.org/1999/02/22-rdf-syntax-ns#"
   xmlns:svg="http://www.w3.org/2000/svg"
   xmlns="http://www.w3.org/2000/svg"
   xmlns:sodipodi="http://sodipodi.sourceforge.net/DTD/sodipodi-0.dtd"
   xmlns:inkscape="http://www.inkscape.org/namespaces/inkscape"
   width="100"
   height="100"
   viewBox="0 0 100 100"
   id="svg4149"
   version="1.1"
   inkscape:version="0.91 r13725"
   sodipodi:docname="matchandtrade-log.svg">
  <defs
     id="defs4151" />
  <sodipodi:namedview
     id="base"
     pagecolor="#ffffff"
     bordercolor="#666666"
     borderopacity="1.0"
     inkscape:pageopacity="0.0"
     inkscape:pageshadow="2"
     inkscape:zoom="1.979899"
     inkscape:cx="161.17611"
     inkscape:cy="7.8010971"
     inkscape:document-units="px"
     inkscape:current-layer="layer1"
     showgrid="false"
     units="px"
     inkscape:window-width="1888"
     inkscape:window-height="1053"
     inkscape:window-x="32"
     inkscape:window-y="0"
     inkscape:window-maximized="1" />
  <metadata
     id="metadata4154">
    <rdf:RDF>
      <cc:Work
         rdf:about="">
        <dc:format>image/svg+xml</dc:format>
        <dc:type
           rdf:resource="http://purl.org/dc/dcmitype/StillImage" />
        <dc:title></dc:title>
      </cc:Work>
    </rdf:RDF>
  </metadata>
  <g
     inkscape:label="Layer 1"
     inkscape:groupmode="layer"
     id="layer1"
     transform="translate(0,-952.36216)">
    <path
       sodipodi:nodetypes="cccccccccccccccccccccccccccc"
       inkscape:connector-curvature="0"
       id="path5122"
       d="m 65.70454,960.97884 0,0.01 m 0,0 c -5.11906,0.091 -7.76731,3.6966 -7.77957,11.0524 -0.70492,0.4395 -5.51606,1.0582 -10.19464,3.6243 -4.87208,2.6274 -6.46429,8.0956 1.64296,9.548 6.18072,0.7538 3.39471,6.0515 2.15055,8.529 -2.13853,4.2567 -5.72519,8.52866 -7.49768,12.91046 -0.41037,1.0342 -0.92878,2.1518 -1.09697,3.3574 -0.11757,1.2801 0.35513,2.4868 2.25924,2.4801 l 10.46931,0 c 2.15971,-0.072 3.85268,-10.2704 6.14902,-14.01746 3.21073,-4.4801 5.27121,-4.4916 8.32576,0 2.29627,3.74706 1.1722,13.94546 3.33189,14.01746 l 12.86692,0 c 1.90411,0.01 2.37823,-1.2 2.26062,-2.4801 -0.16815,-1.2056 -0.68659,-2.3232 -1.09694,-3.3574 -2.11033,-5.2171 -6.71167,-10.06686 -9.18759,-15.15896 -1.02822,-5.4125 0.95556,-5.9888 5.11304,-6.1336 6.69169,-0.9573 5.90182,-7.0584 0.93055,-9.5037 -4.61366,-2.4374 -10.06602,-3.386 -10.7548,-3.8155 -0.0122,-7.3558 -2.66061,-10.9611 -7.77957,-11.0524 m 0,0 0,-0.01 m 0,0 c -0.0194,10e-5 -0.0374,0 -0.0567,0 m 0,0 c -0.0189,-3e-4 -0.0365,0 -0.0553,0"
       style="display:inline;fill:#008000;fill-opacity:1;fill-rule:evenodd;stroke:none;stroke-width:2.44128847;stroke-linecap:butt;stroke-linejoin:round;stroke-miterlimit:0;stroke-dasharray:none;stroke-opacity:1" />
    <g
       style="display:inline;fill:#0000ff;stroke:#ffffff;stroke-width:2.32968569;stroke-miterlimit:0;stroke-dasharray:none"
       transform="matrix(0.93046278,0,0,0.89046868,-96.007291,901.30673)"
       id="g5124">
      <path
         style="fill:#0000ff;fill-opacity:1;stroke:#ffffff;stroke-width:2.32968569;stroke-linecap:round;stroke-linejoin:round;stroke-miterlimit:0;stroke-dasharray:none"
         d="m 128.63056,82.151721 11.28372,0 c 2.22081,12.238438 5.94717,24.476859 10.64636,36.715299 0.90472,2.5506 0.27054,4.31777 -1.88796,5.53333 -6.75141,4.37552 -20.86412,4.32279 -28.77696,0.0558 -2.07045,-1.22497 -2.81894,-2.59045 -1.67625,-6.27978 4.64947,-11.64892 7.81222,-23.978351 10.41109,-36.024619 z"
         id="path5126"
         inkscape:connector-curvature="0"
         sodipodi:nodetypes="ccccccc" />
      <circle
         style="fill:#0000ff;fill-opacity:1;stroke:#ffffff;stroke-width:2.32968569;stroke-linejoin:round;stroke-miterlimit:0;stroke-dasharray:none"
         id="circle5128"
         cx="134.27242"
         cy="79.531647"
         r="12.692059" />
    </g>
    <path
       inkscape:connector-curvature="0"
       id="path5132"
       d="m 24.15493,995.56714 0.9185,30.82306 c 0.0614,0.6976 0.25528,2.2623 0.84702,2.8526 l 15.13928,14.5302 c 0.48172,0.4923 1.62817,0.9695 2.78172,1.0252 1.15355,0.056 2.29015,-0.2379 2.92829,-0.4246 0.0131,0 29.2328,-10.0975 29.2328,-10.0975 0.52437,-0.2538 2.51597,-34.155 2.51597,-34.155 l -23.266,-11.41286 z"
       style="color:#000000;font-style:normal;font-variant:normal;font-weight:normal;font-stretch:normal;font-size:medium;line-height:normal;font-family:sans-serif;text-indent:0;text-align:start;text-decoration:none;text-decoration-line:none;text-decoration-style:solid;text-decoration-color:#000000;letter-spacing:normal;word-spacing:normal;text-transform:none;direction:ltr;block-progression:tb;writing-mode:lr-tb;baseline-shift:baseline;text-anchor:start;white-space:normal;clip-rule:nonzero;display:inline;overflow:visible;visibility:visible;opacity:1;isolation:auto;mix-blend-mode:normal;color-interpolation:sRGB;color-interpolation-filters:linearRGB;solid-color:#000000;solid-opacity:1;fill:#ff6600;fill-opacity:1;fill-rule:evenodd;stroke:none;stroke-width:1.79999995;stroke-linecap:butt;stroke-linejoin:round;stroke-miterlimit:4;stroke-dasharray:none;stroke-dashoffset:0;stroke-opacity:1;color-rendering:auto;image-rendering:auto;shape-rendering:auto;text-rendering:auto;enable-background:accumulate"
       sodipodi:nodetypes="cccccccccc" />
    <g
       id="g5134"
       transform="translate(-134.87841,898.91304)"
       style="fill:#ffffff">
      <path
         inkscape:connector-curvature="0"
         style="color:#000000;font-style:normal;font-variant:normal;font-weight:normal;font-stretch:normal;font-size:medium;line-height:normal;font-family:sans-serif;text-indent:0;text-align:start;text-decoration:none;text-decoration-line:none;text-decoration-style:solid;text-decoration-color:#000000;letter-spacing:normal;word-spacing:normal;text-transform:none;direction:ltr;block-progression:tb;writing-mode:lr-tb;baseline-shift:baseline;text-anchor:start;white-space:normal;clip-rule:nonzero;display:inline;overflow:visible;visibility:visible;opacity:1;isolation:auto;mix-blend-mode:normal;color-interpolation:sRGB;color-interpolation-filters:linearRGB;solid-color:#000000;solid-opacity:1;fill:#ffffff;fill-opacity:1;fill-rule:evenodd;stroke:none;stroke-width:1.79999995;stroke-linecap:butt;stroke-linejoin:round;stroke-miterlimit:4;stroke-dasharray:none;stroke-dashoffset:0;stroke-opacity:1;color-rendering:auto;image-rendering:auto;shape-rendering:auto;text-rendering:auto;enable-background:accumulate"
         d="m 189.98242,88.933594 c -0.80846,-0.0042 -1.53041,0.09966 -2.1914,0.240234 L 161.23633,94.5 a 0.90008998,0.90008998 0 0 0 -0.0391,0.0078 c -1.07795,0.266307 -1.95567,0.835158 -2.5,1.646485 -0.54434,0.811327 -0.74574,1.801849 -0.73047,2.869141 a 0.90008998,0.90008998 0 0 0 0,0.03711 l 1.54492,28.097654 a 0.90008998,0.90008998 0 0 0 0.002,0.0312 c 0.12069,1.36409 0.31462,2.92873 1.4961,4.10743 a 0.90008998,0.90008998 0 0 0 0.002,0.002 l 14.31836,14.20508 -0.01,-0.0117 c 0.97344,0.99632 2.11989,1.47357 3.27344,1.52929 1.15355,0.0557 2.29015,-0.23794 3.52734,-0.59765 a 0.90008998,0.90008998 0 0 0 0.0391,-0.0137 l 27.94336,-9.49414 a 0.90008998,0.90008998 0 0 0 0.10937,-0.0449 c 0.93937,-0.46283 1.51257,-1.31387 1.83203,-2.20898 0.31946,-0.89511 0.43708,-1.87083 0.51953,-2.8457 a 0.90008998,0.90008998 0 0 0 0,-0.0156 l 1.92969,-28.87109 a 0.90008998,0.90008998 0 0 0 0.002,-0.0449 c 0.0165,-0.96111 -0.29529,-1.84799 -0.85351,-2.54493 -0.55822,-0.696931 -1.32848,-1.211018 -2.22656,-1.611325 L 192.84961,89.40625 a 0.90008998,0.90008998 0 0 0 -0.15039,-0.05859 c -1.00692,-0.295748 -1.9047,-0.409851 -2.7168,-0.414062 z m -0.01,1.787109 c 0.63515,0.0029 1.34107,0.105969 2.17773,0.347656 l 18.49609,9.287111 a 0.90008998,0.90008998 0 0 0 0.0371,0.0176 c 0.0455,0.0203 0.0831,0.0418 0.12696,0.0625 0.11548,0.21848 0.0419,0.42785 -0.45313,0.55468 l -30.81445,7.19336 c -0.68333,0.15179 -1.06188,0.20245 -1.39063,0.125 -0.32874,-0.0774 -0.60808,-0.28276 -1.09765,-0.64062 L 162.15625,96.955078 c -0.19828,-0.123155 -0.39259,-0.514445 -0.0879,-0.785156 L 188.14648,90.9375 a 0.90008998,0.90008998 0 0 0 0.01,-0.002 c 0.58989,-0.125853 1.16932,-0.217761 1.81641,-0.214844 z m -29.89063,7.482422 c 0.13294,0.02521 0.28759,0.11076 0.45703,0.228516 l 15.23047,10.632809 c 0.47897,0.32511 0.7424,0.54075 0.92383,0.83008 0.18142,0.28933 0.2815,0.65258 0.43359,1.27344 l 0,31.47656 0,0.71485 c 0.0192,0.76267 -0.21105,0.95428 -0.57422,0.82031 L 162.2793,130.02148 c -0.67224,-0.67219 -0.85798,-1.69524 -0.97266,-2.99023 0,0 0,-0.002 0,-0.002 l -1.53906,-28.039066 c -0.003,-0.257144 0.0165,-0.484354 0.0449,-0.699218 0.076,-0.07368 0.16292,-0.10811 0.26953,-0.08789 z m 51.8418,4.333985 c 0.32773,0.01 0.61998,0.16792 0.75,0.67969 l -1.9043,28.46484 0,-0.0156 c -0.0781,0.92312 -0.19794,1.76865 -0.41992,2.39062 -0.22015,0.61685 -0.49245,0.97224 -0.92578,1.18945 l -27.81445,9.45118 c -0.63708,0.185 -1.20635,0.32929 -1.72071,0.42187 -0.30147,-0.11661 -0.50944,-0.39748 -0.52344,-0.79492 l 0,-32.92383 c 0.0182,-0.47401 0.0692,-0.73889 0.20118,-0.92773 0.13193,-0.18885 0.34413,-0.30232 0.68945,-0.47461 5.33851,-1.50537 11.08993,-2.85998 16.87891,-4.16797 4.82174,-1.08945 9.64651,-2.14801 14.30078,-3.23047 0.16086,-0.0374 0.32844,-0.0672 0.48828,-0.0625 z"
         id="path5136" />
      <ellipse
         style="fill:#ffffff;fill-opacity:1;stroke:none;stroke-width:1.60000002;stroke-linejoin:round;stroke-miterlimit:4;stroke-dasharray:none"
         id="ellipse5138"
         cx="185.35716"
         cy="98.778877"
         rx="4.7705402"
         ry="3.4075289" />
      <ellipse
         style="fill:#ffffff;fill-opacity:1;stroke:none;stroke-width:1.60000002;stroke-linejoin:round;stroke-miterlimit:4;stroke-dasharray:none"
         id="ellipse5140"
         cx="-185.85583"
         cy="141.37244"
         rx="4.772871"
         ry="5.5922318"
         transform="matrix(-0.99951177,0.03124456,0,1,0,0)" />
      <ellipse
         style="fill:#ffffff;fill-opacity:1;stroke:none;stroke-width:1.60000002;stroke-linejoin:round;stroke-miterlimit:4;stroke-dasharray:none"
         id="ellipse5142"
         cx="-132.47906"
         cy="189.19028"
         rx="3.6250794"
         ry="5.5568457"
         transform="matrix(-0.92748085,0.37387066,0.26213446,0.96503136,0,0)" />
      <ellipse
         style="fill:#ffffff;fill-opacity:1;stroke:none;stroke-width:1.60000002;stroke-linejoin:round;stroke-miterlimit:4;stroke-dasharray:none"
         id="ellipse5144"
         cx="-142.20731"
         cy="152.46997"
         rx="3.3845396"
         ry="5.0851917"
         transform="matrix(-0.95551861,0.29493082,0.1855909,0.9826271,0,0)" />
      <ellipse
         style="fill:#ffffff;fill-opacity:1;stroke:none;stroke-width:1.60000002;stroke-linejoin:round;stroke-miterlimit:4;stroke-dasharray:none"
         id="ellipse5146"
         cx="-196.30385"
         cy="127.90068"
         rx="4.5289993"
         ry="5.2328758"
         transform="matrix(-0.99952523,0.03081109,0,1,0,0)" />
      <ellipse
         style="fill:#ffffff;fill-opacity:1;stroke:none;stroke-width:1.60000002;stroke-linejoin:round;stroke-miterlimit:4;stroke-dasharray:none"
         id="ellipse5148"
         cx="-207.22391"
         cy="116.2809"
         rx="4.2267442"
         ry="4.9374475"
         transform="matrix(-0.9995147,0.03115052,0,1,0,0)" />
    </g>
    <ellipse
       style="fill:#ffffff;fill-opacity:1;stroke:none;stroke-width:2.0999999;stroke-linecap:round;stroke-linejoin:round;stroke-miterlimit:0;stroke-dasharray:none"
       id="path4146"
       cx="62.38382"
       cy="971.29865"
       rx="1.5178572"
       ry="1.875" />
    <ellipse
       style="fill:#ffffff;fill-opacity:1;stroke:none;stroke-width:2.0999999;stroke-linecap:round;stroke-linejoin:round;stroke-miterlimit:0;stroke-dasharray:none"
       id="path4146-3"
       cx="68.476913"
       cy="971.32037"
       rx="1.5178572"
       ry="1.875" />
    <path
       style="opacity:1;fill:#ffffff;fill-rule:evenodd;stroke:#ffffff;stroke-width:0.92106551px;stroke-linecap:butt;stroke-linejoin:miter;stroke-opacity:1"
       d="m 60.35981,976.78484 c 3.04485,3.3648 7.90604,1.9718 10.4585,-0.9126 -2.52654,5.0964 -8.43192,5.2864 -10.4585,0.9126 z"
       id="path4167"
       inkscape:connector-curvature="0"
       sodipodi:nodetypes="ccc" />
  </g>
</svg>
